# xmcd CD database file
#
# Track frame offsets:
#	150
#	21127
#	37556
#
# Disc length: 1206 seconds
#
# Revision: 1
# Processed by: cddbd v1.5.2PL0 Copyright (c) Steve Scherf et al.
# Submitted via: CDex 1.70beta2
#
DISCID=1204b403
DTITLE=Crimson - CRIMSONG
DYEAR=2008
DGENRE=Jazz
TTITLE0=DEJA VU
TTITLE1=SHERLY
TTITLE2=MIZUMI NO UE SORA
EXTD=YEAR: 2008
EXTT0=
EXTT1=
EXTT2=
PLAYORDER=
